<?xml version="1.0" encoding="UTF-8"?>
<svg width="60px" height="60px" viewBox="0 0 60 60" version="1.1" xmlns="http://www.w3.org/2000/svg" xmlns:xlink="http://www.w3.org/1999/xlink">
    <title>Truck</title>
    <g id="Symbols" stroke="none" stroke-width="1" fill="none" fill-rule="evenodd">
        <g id="Truck" fill-rule="nonzero">
            <g>
                <rect id="Rectangle" fill="#FFFFFF" opacity="0.15" transform="translate(30.000000, 30.000000) rotate(90.000000) translate(-30.000000, -30.000000) " x="0" y="0" width="60" height="60" rx="3.75"></rect>
                <rect id="Rectangle" fill="#BFC6FE" opacity="0.5" transform="translate(30.000000, 21.000000) rotate(90.000000) translate(-30.000000, -21.000000) " x="9" y="0" width="42" height="42" rx="4.18"></rect>
                <g id="Group" transform="translate(1.520000, 11.610000)">
                    <polygon id="Path" fill="#BFC6F9" points="55.62 33.37 37.59 33.37 39.53 13.4 51.12 13.4 56.6 23.3"></polygon>
                    <path d="M55.65,33.39 L37.57,33.6100017 C37.5053715,33.6102448 37.443622,33.5832871 37.3998645,33.5357247 C37.356107,33.4881622 37.3343796,33.4243842 37.34,33.36 L37.34,33.36 L39.1,13.36 C39.1293424,13.1260097 39.3243126,12.9479934 39.56,12.94 L39.56,12.94 C43.43,12.94 47.3,12.84 51.16,12.84 C51.3324831,12.8405025 51.4919988,12.9316543 51.58,13.08 C53.4,16.38 55.15,19.72 56.93,23.08 L56.93,23.08 C56.9530199,23.1412416 56.9530199,23.2087584 56.93,23.27 L56.33,28.39 L55.65,33.39 Z M55.59,33.32 L55.89,28.23 L56.22,23.29 L56.22,23.5 C54.34,20.23 52.44,16.97 50.62,13.67 L51.03,13.91 C47.17,13.91 43.31,13.85 39.45,13.81 L39.91,13.39 L37.84,33.39 L37.62,33.14 L55.59,33.32 Z" id="Shape" fill="#5161CF"></path>
                    <polygon id="Path" fill="#EFF1FD" points="37.84 33.37 7.79 33.37 10.98 0.42 41.03 0.42"></polygon>
                    <path d="M37.87,33.39 L22.87,33.67 C17.87,33.76 12.77,33.79 7.7,33.84 C7.46637717,33.823942 7.28855696,33.6238943 7.3,33.39 L7.3,33.39 L8.86,16.89 C9.4,11.3966667 9.97333333,5.89666667 10.58,0.39 L10.58,0.39 C10.6097242,0.168909286 10.7969399,0.00296816195 11.02,1.42108547e-14 L41.02,0.14 C41.086572,0.139430927 41.1501247,0.167735556 41.1942352,0.217599604 C41.2383457,0.267463652 41.2586861,0.333994604 41.25,0.4 L41.25,0.4 L37.87,33.39 Z M37.81,33.32 L40.81,0.41 L41.05,0.67 L10.99,0.81 L11.43,0.41 C10.97,5.90333333 10.4766667,11.3933333 9.95,16.88 L8.28,33.39 L7.84,32.9 C12.84,32.9 17.73,32.98 22.71,33.08 L37.81,33.32 Z" id="Shape" fill="#5161CF"></path>
                    <ellipse id="Oval" fill="#2D2FA7" transform="translate(18.617059, 33.375649) rotate(-42.680000) translate(-18.617059, -33.375649) " cx="18.6170588" cy="33.3756486" rx="5.25" ry="4.76"></ellipse>
                    <path d="M13.66,33.39 C13.5071153,34.6542118 13.9291652,35.9203614 14.81,36.84 C15.7020274,37.7119631 16.9135322,38.1784829 18.16,38.13 C19.4483402,38.0923869 20.6772154,37.5794651 21.61,36.69 C22.5385499,35.8286224 23.1125995,34.651999 23.22,33.39 C23.3200631,32.222073 22.9203267,31.0664714 22.12,30.21 C21.3138753,29.3778673 20.2085004,28.9025921 19.05,28.89 C17.7981362,28.8708233 16.5773223,29.2801135 15.59,30.05 C14.5258049,30.8603563 13.8306746,32.063328 13.66,33.39 Z M13.56,33.39 C13.6829231,31.9936362 14.2791808,30.6811636 15.25,29.67 C16.2634664,28.5856409 17.6665706,27.9488474 19.15,27.9 C20.5681903,27.8474622 21.9358579,28.4304626 22.88,29.49 C23.8017892,30.5663155 24.2169678,31.9866633 24.02,33.39 C23.8419212,34.8477475 23.1292554,36.1875592 22.02,37.15 C20.9444556,38.1097528 19.5514826,38.6370163 18.11,38.6300691 C16.7731394,38.6121305 15.5101982,38.013511 14.65,36.99 C13.8319434,35.9776152 13.4409109,34.6861317 13.56,33.39 Z" id="Shape" fill="#5161CF"></path>
                    <polygon id="Path" fill="#FFFFFF" points="44.32 15.16 43.56 22.98 54.22 22.98 50.03 15.16"></polygon>
                    <path d="M44.36,15.19 L43.8,22.98 L43.59,22.74 L54.26,22.54 L53.82,23.22 C53.09,21.93 52.36,20.65 51.66,19.35 C50.96,18.05 50.3,16.71 49.66,15.35 L50,15.54 C49.1,15.54 48.2,15.44 47.26,15.38 L44.36,15.19 Z M44.29,15.12 C45.19,15.05 46.12,14.96 47.09,14.9 C48.06,14.84 49.09,14.76 50.09,14.74 C50.2190142,14.7369839 50.3402788,14.8014057 50.41,14.91 L50.41,14.91 C51.15,16.18 51.9,17.46 52.6,18.76 C53.3,20.06 53.96,21.39 54.6,22.76 L54.6,22.76 C54.7032018,22.9813797 54.6153892,23.2448173 54.4,23.36 C54.3258531,23.3986521 54.2436129,23.4192121 54.16,23.42 L43.52,23.22 L43.52,23.22 C43.4592382,23.2212304 43.4012133,23.194766 43.3623066,23.1480779 C43.3233998,23.1013898 43.3078327,23.0395438 43.32,22.98 L43.32,22.98 L44.29,15.12 Z" id="Shape" fill="#5161CF"></path>
                    <ellipse id="Oval" fill="#2D2FA7" transform="translate(46.328101, 33.370954) rotate(-42.680000) translate(-46.328101, -33.370954) " cx="46.3281006" cy="33.3709539" rx="5.25" ry="4.76"></ellipse>
                    <path d="M41.37,33.39 C41.2629336,34.6405678 41.7345844,35.8712816 42.65,36.73 C43.5407704,37.5176906 44.7019577,37.9298404 45.89,37.88 C47.1153484,37.8427759 48.2893853,37.3795264 49.21,36.57 C50.153942,35.7554508 50.7689298,34.6250109 50.94,33.39 C51.1052334,32.1926274 50.7427903,30.9824712 49.9465712,30.0730547 C49.1503521,29.1636383 47.9987069,28.6444502 46.79,28.65 C45.477382,28.6252168 44.2008461,29.0803605 43.2,29.93 C42.1609621,30.7996117 41.5040102,32.0417176 41.37,33.39 L41.37,33.39 Z M41.27,33.39 C41.4326853,32.0163029 42.065031,30.7410136 43.06,29.78 C44.0713121,28.7823163 45.4202947,28.2006122 46.84,28.15 C48.2163191,28.0957072 49.5481864,28.6427799 50.4889617,29.6488335 C51.429737,30.6548871 51.8863647,32.020409 51.74,33.39 C51.6130608,34.8729893 50.9394457,36.2558605 49.85,37.27 C48.7697424,38.2955314 47.3394945,38.8712061 45.85,38.88 C44.4550617,38.8656044 43.1434532,38.2134844 42.29,37.11 C41.4847187,36.0470865 41.1194669,34.7149916 41.27,33.39 L41.27,33.39 Z" id="Shape" fill="#5161CF"></path>
                    <ellipse id="Oval" fill="#FFFFFF" transform="translate(18.712548, 33.310528) rotate(-42.680000) translate(-18.712548, -33.310528) " cx="18.7125482" cy="33.3105283" rx="2.62" ry="2.38"></ellipse>
                    <path d="M16.26,33.31 C16.2149339,33.9221675 16.4866841,34.5147338 16.98,34.88 C17.4286057,35.1953936 17.973386,35.3439701 18.52,35.3 C19.656163,35.2485138 20.6060739,34.4188974 20.81,33.3 C20.8999957,32.7446191 20.7444502,32.1775233 20.3837004,31.7457748 C20.0229506,31.3140263 19.4925336,31.0601564 18.93,31.05 C18.299563,31.0173648 17.67842,31.2125812 17.18,31.6 C16.645167,32.0141273 16.3108653,32.6354924 16.26,33.31 Z M16.16,33.31 C16.2476011,32.6179245 16.5562324,31.9726045 17.04,31.47 C17.5473791,30.9309499 18.2411256,30.6055327 18.98,30.56 C19.6976553,30.5248474 20.3961887,30.797712 20.9,31.31 C21.4148745,31.842549 21.6738331,32.5720098 21.61,33.31 C21.5543283,34.114182 21.1971983,34.8677263 20.61,35.42 C20.0209023,35.9974488 19.2247874,36.3144538 18.4,36.3 C17.6545713,36.2878197 16.961286,35.9150857 16.54,35.3 C16.1756341,34.7049163 16.0405442,33.9974718 16.16,33.31 L16.16,33.31 Z" id="Shape" fill="#5161CF"></path>
                    <ellipse id="Oval" fill="#FFFFFF" transform="translate(46.739663, 33.680911) rotate(-42.680000) translate(-46.739663, -33.680911) " cx="46.7396625" cy="33.6809105" rx="2.62" ry="2.38"></ellipse>
                    <path d="M49.19,33.68 C49.2428377,33.0659306 48.9742492,32.4682266 48.48,32.1 C48.02997,31.7876475 47.4862971,31.6393731 46.94,31.68 C45.8052955,31.7351125 44.8573232,32.5630359 44.65,33.68 C44.579846,34.2237771 44.7360085,34.7725107 45.0819657,35.1978679 C45.4279229,35.6232251 45.9333347,35.8879026 46.48,35.93 C47.1225622,35.9743842 47.7591841,35.7823306 48.27,35.39 C48.8068139,34.9775537 49.141629,34.3552343 49.19,33.68 L49.19,33.68 Z M49.29,33.68 C49.1983203,34.3708694 48.8902686,35.0149775 48.41,35.52 C47.8987123,36.042027 47.2097454,36.3525975 46.48,36.39 C45.7618946,36.4162277 45.0656058,36.1406134 44.56,35.63 C44.0416413,35.0996169 43.7820969,34.368506 43.85,33.63 C43.9037138,32.8253071 44.2611666,32.0710817 44.85,31.52 C45.4405418,30.9436045 46.2348139,30.6237393 47.06,30.63 C47.8142997,30.655137 48.5087541,31.0471677 48.92,31.68 C49.2842307,32.2788088 49.4158968,32.9905176 49.29,33.68 L49.29,33.68 Z" id="Shape" fill="#5161CF"></path>
                    <path d="M21.04,4.92 C19.3833516,5.16584118 17.7139222,5.31608983 16.04,5.37 C14.36,5.43 12.7,5.32 11.04,5.27 C7.70666667,5.17666667 4.37333333,5.06 1.04,4.92 L1.04,4.82 C4.39,4.67 7.74,4.56 11.09,4.47 C12.76,4.41 14.44,4.3 16.09,4.37 C17.7642439,4.41857047 19.4339885,4.56884749 21.09,4.82 L21.04,4.92 Z" id="Path" fill="#5161CF"></path>
                    <path d="M17.48,10.21 C16.0592727,10.4626404 14.6222505,10.6130264 13.18,10.66 C11.75,10.73 10.35,10.66 8.93,10.56 C6.14,10.47 3.32,10.39 0.48,10.21 L0.48,10.11 C3.33333333,9.97 6.18333333,9.85333333 9.03,9.76 C10.45,9.71 11.88,9.6 13.3,9.66 C14.712235,9.7098902 16.1191255,9.86027043 17.51,10.11 L17.48,10.21 Z" id="Path" fill="#5161CF"></path>
                    <path d="M12,15.51 C11.016174,15.7529873 10.0118202,15.9036404 9,15.96 C7.99891934,15.9823219 6.99737203,15.948937 6,15.86 C4,15.7733333 2,15.6566667 -1.77635684e-15,15.51 L-1.77635684e-15,15.39 C2,15.24 4,15.13 6,15.04 C6.99716454,14.9477189 7.99890367,14.9143276 9,14.94 C10.013105,14.9834328 11.0187384,15.1342778 12,15.39 L12,15.51 Z" id="Path" fill="#5161CF"></path>
                </g>
            </g>
        </g>
    </g>
</svg>