<?xml version="1.0" encoding="utf-8"?>
<!-- Generator: Adobe Illustrator 24.2.3, SVG Export Plug-In . SVG Version: 6.00 Build 0)  -->
<svg version="1.1" id="Layer_1" xmlns="http://www.w3.org/2000/svg" xmlns:xlink="http://www.w3.org/1999/xlink" x="0px" y="0px"
	 viewBox="0 0 60 60" style="enable-background:new 0 0 60 60;" xml:space="preserve">
<style type="text/css">
	.st0{opacity:0.5;fill:#BFC6FE;enable-background:new    ;}
	.st1{fill:none;stroke:#5161CF;stroke-miterlimit:10;}
	.st2{fill:#5161CF;}
	.st3{fill:#BFC6F9;}
	.st4{fill:#FFFFFF;}
</style>
<g id="Secure">
	<path id="Rectangle" class="st0" d="M50.8,4.2v33.6c0,2.3-1.9,4.2-4.2,4.2H13c-2.3,0-4.2-1.9-4.2-4.2V4.2C8.8,1.9,10.7,0,13,0h33.6
		C49,0,50.8,1.9,50.8,4.2z"/>
</g>
<path class="st1" d="M49.3-23.5"/>
<path class="st1" d="M44-23.5"/>
<g transform="translate(0.390031, 0.510000)">
	<path id="Path_1_" class="st2" d="M21.9,24.6c-0.6-2.8-0.6-5.8,0.2-8.6c0.5-1.5,1.6-2.8,2.9-3.6c2.6-1.3,5.5-1.3,8.1,0.2
		c1.3,0.7,2.3,2.1,2.9,3.6c1.1,2.6,1.3,5.8,0.5,8.6c-0.3-2.6-1.1-6.2-2.3-8.4c-1.1-1.9-3.1-2.8-5-2.6c-1.9-0.2-3.9,0.7-5,2.6
		c-0.6,1.1-0.5,4.5-0.8,5.6C22.9,23.1,22.4,23.3,21.9,24.6z"/>
	<path id="Rectangle_1_" class="st3" d="M17.8,22.9h22.6c1.9,0,3.4,1.6,3.4,3.5v18.3c0,2-1.5,3.5-3.4,3.5H17.8
		c-1.9,0-3.4-1.6-3.4-3.5V26.5C14.2,24.5,16,22.9,17.8,22.9z"/>
	<path id="Shape_1_" class="st2" d="M40.4,48.5c-4.2,0-8.5,0.4-12.7,0.6c-2.1,0.2-4.2,0.2-6.4,0.2H18c-1.3,0-2.7-0.6-3.6-1.6
		c-0.4-0.6-0.8-1.2-0.8-1.8c0-0.4,0-0.6,0-1v-0.8l0.2-3.3c0.2-2.2,0.2-4.3,0.2-6.7c0-2.2,0-4.3,0-6.7c-0.2-1.2,0-2.4,0.8-3.5
		c0.8-1,1.9-1.8,3-1.8c4.2-0.2,8.5-0.4,12.7-0.4l6.4-0.2h3.2c2.3-0.2,4.2,1.4,4.7,3.5c0,0.4,0.2,0.8,0.2,1v0.8v3.3
		c0,2.2-0.2,4.3-0.4,6.7l-0.4,6.7c0,0.6,0,1.2-0.2,1.8c-0.2,0.6-0.4,1.2-0.8,1.6C42.7,47.9,41.5,48.5,40.4,48.5z M40.4,48.3
		c1.1,0,2.1-0.6,2.7-1.4c0.6-1,0.8-2,0.6-3.1l-0.4-6.7c-0.2-2.2-0.2-4.3-0.4-6.7v-3.3v-0.8c0-0.2,0-0.4,0-0.6
		c-0.2-0.4-0.4-0.8-0.8-1c-0.6-0.6-1.3-1-1.9-0.8H37l-6.4,0c-4.2,0-8.5-0.2-12.7-0.4c-1.5,0-2.7,1-3,2.4c0,0.6,0,1,0,1.6
		c0,2.2,0,4.3,0,6.7c0,2.2,0.2,4.3,0.2,6.7l0.2,3.3V45c0,0.2,0,0.4,0.2,0.6c0.2,0.4,0.4,0.8,0.6,1c0.6,0.6,1.3,1,2.1,0.8h3.2
		c2.1,0,4.2,0.2,6.4,0.2C31.9,47.9,36,48.3,40.4,48.3L40.4,48.3z"/>
</g>
<g>
	<circle class="st4" cx="29.5" cy="31.9" r="3.4"/>
	<polygon class="st4" points="32.7,42.2 25.9,41.9 28.3,34.9 30.8,34.9 	"/>
	<g>
		<path class="st2" d="M25.4,32c0-1.1,0.5-2.1,1.3-2.9c0.8-0.7,1.8-1.1,2.9-1.1c1,0,2,0.5,2.7,1.2c0.7,0.7,1.1,1.7,1.1,2.7
			c0,1-0.4,2-1.1,2.7c-0.7,0.7-1.7,1.2-2.7,1.2c-1,0-2.1-0.3-2.8-1.1C25.9,34.1,25.4,33.1,25.4,32z M26.4,32c0,0.8,0.3,1.7,0.8,2.3
			c0.6,0.6,1.4,1,2.3,1.1c0.9,0,1.8-0.3,2.4-0.9c0.6-0.6,1-1.5,1-2.4c0-0.9-0.4-1.8-1-2.4c-0.6-0.6-1.5-0.9-2.4-0.9
			c-0.9,0-1.7,0.4-2.3,1C26.7,30.3,26.4,31.2,26.4,32z"/>
	</g>
	<g>
		<path class="st2" d="M30.9,35.3c0.5,1.1,0.9,2.3,1.3,3.4c0.4,1.2,0.8,2.3,1.1,3.5l0.2,0.7l-0.7,0C30.5,43,28.2,43,25.9,43l-0.8,0
			l0.2-0.8c0.3-1.2,0.6-2.3,1-3.5c0.4-1.2,0.7-2.3,1.1-3.5l1,0.3c-0.2,1.2-0.5,2.4-0.8,3.6c-0.3,1.2-0.6,2.4-0.9,3.5l-0.6-0.8
			c2.3,0,4.5,0,6.8,0.1l-0.5,0.7c-0.3-1.2-0.5-2.4-0.8-3.6C31.2,37.7,31,36.5,30.9,35.3z"/>
	</g>
</g>
</svg>
