<svg width="36" height="36" viewBox="0 0 36 36" fill="none" xmlns="http://www.w3.org/2000/svg">
<path d="M0 6C0 2.68629 2.68629 0 6 0H30C33.3137 0 36 2.68629 36 6V30C36 33.3137 33.3137 36 30 36H6C2.68629 36 0 33.3137 0 30V6Z" fill="#FFC800"/>
<path d="M26.0146 23.8138L23.075 20.8829C24.0234 19.6746 24.5381 18.1825 24.5361 16.6464C24.5361 15.2784 24.1305 13.9412 23.3705 12.8037C22.6105 11.6663 21.5302 10.7797 20.2664 10.2562C19.0025 9.73273 17.6118 9.59576 16.2701 9.86264C14.9284 10.1295 13.6959 10.7883 12.7286 11.7556C11.7613 12.7229 11.1025 13.9553 10.8357 15.2971C10.5688 16.6388 10.7058 18.0295 11.2293 19.2933C11.7528 20.5572 12.6393 21.6374 13.7767 22.3974C14.9142 23.1575 16.2515 23.5631 17.6195 23.5631C19.1555 23.565 20.6476 23.0504 21.8559 22.102L24.7869 25.0416C24.8672 25.1226 24.9629 25.1869 25.0682 25.2308C25.1736 25.2747 25.2866 25.2973 25.4007 25.2973C25.5149 25.2973 25.6279 25.2747 25.7332 25.2308C25.8386 25.1869 25.9342 25.1226 26.0146 25.0416C26.0956 24.9612 26.1599 24.8656 26.2038 24.7602C26.2477 24.6548 26.2703 24.5418 26.2703 24.4277C26.2703 24.3136 26.2477 24.2006 26.2038 24.0952C26.1599 23.9898 26.0956 23.8942 26.0146 23.8138V23.8138ZM12.4319 16.6464C12.4319 15.6204 12.7362 14.6175 13.3062 13.7644C13.8762 12.9113 14.6864 12.2464 15.6343 11.8538C16.5822 11.4612 17.6252 11.3584 18.6315 11.5586C19.6378 11.7587 20.5621 12.2528 21.2876 12.9783C22.0131 13.7038 22.5071 14.6281 22.7073 15.6344C22.9075 16.6407 22.8047 17.6837 22.4121 18.6316C22.0195 19.5795 21.3546 20.3897 20.5015 20.9597C19.6484 21.5297 18.6454 21.8339 17.6195 21.8339C16.2436 21.8339 14.9242 21.2874 13.9513 20.3146C12.9785 19.3417 12.4319 18.0222 12.4319 16.6464Z" fill="#21165E"/>
</svg>
