<svg width="24" height="25" viewBox="0 0 24 25" fill="none" xmlns="http://www.w3.org/2000/svg">
<path d="M20.5012 18.6394C19.8481 18.1781 17.7287 16.4957 16.3958 15.6002C17.5628 14.0486 18.1488 12.1245 18.0486 10.173C17.8892 7.80272 16.8842 5.57344 15.2228 3.90464C13.6045 2.22036 11.4393 1.19311 9.13139 1.01467C6.72814 0.872033 4.37837 1.77452 2.66671 3.4976C0.929422 5.24863 -0.0330106 7.64392 0.000864944 10.1323C0.0415222 12.5669 1.06325 14.8775 2.82666 16.5228C4.59768 18.182 6.92458 19.0896 9.33132 19.06C11.298 19.0563 13.2122 18.4147 14.7963 17.2283C15.6894 18.5851 17.4622 20.7017 17.8487 21.3937C18.2352 22.0857 21.101 25.2063 22.6606 24.9892L23.9935 23.6324C24.1534 22.0585 21.3276 19.2093 20.5012 18.6394ZM9.11806 17.8932C7.08892 17.9431 5.14023 17.0852 3.78637 15.5459C2.46699 14.061 1.75216 12.1206 1.78698 10.1188C1.84448 8.16228 2.63632 6.30261 3.99963 4.92224C5.36839 3.51804 7.19259 2.66918 9.13139 2.53428H9.67788C11.5361 2.50045 13.3307 3.22332 14.663 4.54233C16.0854 6.02176 16.8096 8.05517 16.6491 10.1188C16.5125 12.103 15.7128 13.9799 14.3831 15.4374C13.0336 16.9568 11.1298 17.8448 9.11806 17.8932Z" fill="#21165E"/>
<path d="M9.33144 18.484C13.7818 18.484 17.3896 14.8116 17.3896 10.2815C17.3896 5.75145 13.7818 2.0791 9.33144 2.0791C4.88106 2.0791 1.27332 5.75145 1.27332 10.2815C1.27332 14.8116 4.88106 18.484 9.33144 18.484Z" stroke="#21165E" stroke-width="2.25"/>
</svg>
