<?xml version="1.0" encoding="utf-8"?>
<!-- Generator: Adobe Illustrator 24.2.3, SVG Export Plug-In . SVG Version: 6.00 Build 0)  -->
<svg version="1.1" id="Layer_1" xmlns="http://www.w3.org/2000/svg" xmlns:xlink="http://www.w3.org/1999/xlink" x="0px" y="0px"
	 viewBox="0 0 60 60" style="enable-background:new 0 0 60 60;" xml:space="preserve">
<style type="text/css">
	.st0{opacity:0.5;}
	.st1{opacity:0.15;fill:#FFFFFF;enable-background:new    ;}
	.st2{opacity:0.5;fill:#BFC6FE;enable-background:new    ;}
	.st3{fill:#5161CF;}
	.st4{fill:#2D2FA7;}
	.st5{fill:#BFC6F9;}
	.st6{fill:#FFFFFF;}
</style>
<g>
	<g class="st0">
		<path id="Rectangle" class="st1" d="M60,3.8v52.5c0,2.1-1.7,3.8-3.8,3.8H3.8C1.7,60,0,58.3,0,56.2V3.8C0,1.7,1.7,0,3.8,0h52.5
			C58.3,0,60,1.7,60,3.8z"/>
		<path id="Rectangle_1_" class="st2" d="M51,4.5v33.6c0,2.3-1.9,4.2-4.2,4.2H13.2c-2.3,0-4.2-1.9-4.2-4.2V4.5
			c0-2.3,1.9-4.2,4.2-4.2h33.6C49.1,0.3,51,2.2,51,4.5z"/>
	</g>
	<g>
		<path class="st3" d="M21.4,37.4l11.1,7l-9.7,15.3l-2.5-4.6c-0.7-1.2-1.9-2-3.3-2.1l-5.2-0.3L21.4,37.4z"/>
		<path class="st4" d="M26,40.2L37.6,34l8.6,16L41,50c-1.4,0-2.7,0.7-3.5,1.9l-2.9,4.4L26,40.2z"/>
		<path class="st5" d="M14.1,39.1C13.9,38.8,13.4,38,14,37c0.8-1.4,1-3,0.5-4.5c-0.5-1.5-1.6-2.7-3.1-3.3c-1-0.5-1.1-1.4-1.1-1.7
			c0-0.3,0.1-1.3,1.2-1.7c1.4-0.6,2.5-1.8,3.1-3.3c0.5-1.5,0.3-3.2-0.5-4.5c-0.5-1-0.1-1.8,0.1-2c0.2-0.2,0.8-1,1.9-0.7
			c1.5,0.4,3.2,0,4.4-0.9c1.3-0.9,2.1-2.4,2.3-3.9c0.1-1.1,1-1.5,1.3-1.6c0.3-0.1,1.2-0.3,2,0.5c1,1.2,2.5,1.9,4.1,1.9
			c1.5,0,3.1-0.6,4.1-1.9l0,0c0.7-0.8,1.7-0.6,2-0.5c0.3,0.1,1.2,0.5,1.3,1.6c0.2,1.5,1,3,2.3,3.9c1.3,0.9,2.9,1.3,4.4,0.9
			c1.1-0.3,1.7,0.5,1.9,0.7c0.2,0.3,0.6,1.1,0.1,2.1c-0.8,1.4-1,3-0.5,4.5c0.5,1.5,1.6,2.7,3.1,3.3c1,0.5,1.1,1.4,1.1,1.7
			c0,0.3-0.1,1.3-1.2,1.7c-1.4,0.6-2.5,1.8-3.1,3.3c-0.5,1.5-0.3,3.2,0.5,4.5c0.5,1,0.1,1.8-0.1,2c-0.2,0.2-0.8,1-1.9,0.7
			c-1.5-0.4-3.2,0-4.4,0.9c-1.3,0.9-2.1,2.4-2.3,3.9c-0.1,1.1-1,1.5-1.3,1.6c-0.3,0.1-1.2,0.3-2-0.5c-1-1.2-2.5-1.9-4.1-1.9
			s-3.1,0.6-4.1,1.9c-0.7,0.8-1.7,0.6-2,0.5c-0.3-0.1-1.2-0.5-1.3-1.6c-0.2-1.5-1-3-2.3-3.9c-0.9-0.7-2.1-1.1-3.3-1.1
			c-0.4,0-0.8,0-1.2,0.1C14.9,40,14.3,39.3,14.1,39.1z"/>
		<g>
			<path class="st3" d="M46.2,15.6c0.3,0.5,0.4,1,0.4,1.5c0,0.5-0.4,1-0.5,1.3c-0.4,0.8-0.6,1.6-0.5,2.5c0,0.9,0.3,1.7,0.7,2.5
				c0.4,0.8,1.1,1.4,1.8,1.9c0.4,0.2,0.8,0.4,1.2,0.7c0.4,0.3,0.6,0.8,0.6,1.3c0.1,0.5-0.1,1-0.3,1.4c-0.3,0.4-0.7,0.6-1.1,0.8
				c-1.6,0.8-2.8,2.4-3,4.1c-0.1,0.9,0,1.8,0.3,2.6c0.1,0.4,0.4,0.8,0.6,1.2c0.2,0.4,0.2,0.9,0,1.3c-0.1,0.2-0.2,0.4-0.4,0.5
				c-0.2,0.2-0.3,0.3-0.5,0.4c-0.4,0.2-0.9,0.2-1.3,0.1c-0.9-0.2-1.8-0.1-2.7,0.1c-1.7,0.5-3.2,1.9-3.7,3.6
				c-0.1,0.4-0.2,0.9-0.3,1.3c-0.1,0.4-0.4,0.8-0.7,1.1c-0.7,0.6-1.8,0.4-2.5-0.3l0,0c-0.9-1.1-2.3-1.8-3.7-1.9
				c-1.4-0.1-2.9,0.4-3.9,1.4c-0.3,0.2-0.4,0.5-0.7,0.8c-0.3,0.2-0.6,0.4-1,0.4c-0.7,0.1-1.5-0.3-1.9-0.9c-0.2-0.3-0.2-0.7-0.3-1.1
				c-0.1-0.3-0.2-0.7-0.3-1c-0.2-0.6-0.6-1.3-1.1-1.8c-0.9-1-2.3-1.6-3.6-1.7c-0.3,0-0.7,0-1,0.1c-0.2,0-0.3,0.1-0.5,0.1
				c-0.2,0-0.4,0.1-0.6,0.1c-0.9,0-1.6-0.6-1.9-1.4c-0.2-0.4-0.2-0.8-0.1-1.2c0-0.2,0.1-0.4,0.2-0.6c0.1-0.2,0.2-0.3,0.2-0.5
				c0.3-0.6,0.4-1.2,0.5-1.9c0-0.7-0.1-1.3-0.3-1.9c-0.2-0.6-0.5-1.2-1-1.6c-0.4-0.5-1-0.9-1.5-1.1c-0.2-0.1-0.7-0.3-1.1-0.6
				c-0.3-0.3-0.6-0.8-0.7-1.2c-0.2-0.9,0.1-2,0.9-2.6c0.2-0.1,0.4-0.3,0.6-0.3c0.1-0.1,0.3-0.1,0.4-0.2c0.3-0.2,0.5-0.3,0.8-0.5
				c0.5-0.4,0.8-0.9,1.1-1.5c0.1-0.3,0.3-0.6,0.3-0.8c0.1-0.3,0.1-0.6,0.1-0.9c0-0.6,0-1.2-0.2-1.8c-0.1-0.3-0.2-0.6-0.4-0.8
				l-0.1-0.2c-0.1-0.1-0.1-0.2-0.2-0.3c-0.1-0.2-0.2-0.5-0.2-0.7c-0.1-0.5,0-1,0.3-1.5c0-0.1,0.1-0.1,0.1-0.2c0-0.1,0.2-0.2,0.2-0.2
				l0.2-0.2c0.2-0.2,0.4-0.3,0.6-0.4c0.4-0.3,1-0.4,1.5-0.3c0.1,0,0.3,0,0.4,0.1l0.2,0c0.1,0,0.3,0,0.4,0.1c1.2,0.1,2.5-0.3,3.4-1.1
				c0.9-0.8,1.5-1.9,1.7-3.2c0.1-0.5,0.3-1,0.6-1.4c0.3-0.4,0.7-0.7,1.2-0.8c1-0.3,2.1,0.1,2.7,0.7l0,0l0,0c1.2,1.3,3.1,1.9,4.8,1.3
				c0.4-0.1,0.8-0.3,1.2-0.6c0.2-0.1,0.3-0.3,0.5-0.4c0.1-0.1,0.1-0.1,0.2-0.2c0.1-0.1,0.1-0.2,0.3-0.3c0.5-0.6,1.4-0.8,2.1-0.8
				c0.3,0,0.8,0.1,1.1,0.3c0.3,0.2,0.6,0.4,0.9,0.7c0.2,0.3,0.4,0.7,0.5,1c0,0.2,0.1,0.4,0.1,0.5c0,0.1,0,0.2,0,0.3
				c0.1,0.4,0.2,0.9,0.4,1.3c0.4,0.8,1,1.5,1.8,2.1c0.8,0.5,1.7,0.8,2.7,0.9c0.3,0,0.5,0,0.7,0c0.2,0,0.5-0.1,0.8-0.1
				C45.2,14.8,45.8,15.2,46.2,15.6z M45.7,16c-0.3-0.3-0.7-0.5-1.1-0.5c-0.2,0-0.4,0.1-0.7,0.1c-0.3,0.1-0.6,0.1-0.8,0.1
				c-1.1,0.1-2.3-0.1-3.3-0.7c-1-0.5-1.9-1.4-2.5-2.4c-0.3-0.5-0.5-1.1-0.6-1.7c-0.1-0.7-0.1-0.9-0.3-1.1c-0.1-0.1-0.2-0.2-0.3-0.2
				c-0.1-0.1-0.2-0.1-0.4-0.1c-0.3,0-0.6,0.1-0.8,0.3c0,0-0.1,0.2-0.2,0.3c-0.1,0.1-0.2,0.2-0.3,0.3c-0.2,0.2-0.5,0.4-0.7,0.6
				c-0.5,0.4-1.1,0.6-1.7,0.8c-1.2,0.3-2.4,0.4-3.6,0c-1.2-0.4-2.2-1-3-2l0,0c-0.3-0.4-0.8-0.5-1.2-0.4c-0.1,0-0.4,0.2-0.5,0.3
				c-0.1,0.2-0.2,0.3-0.2,0.6c-0.2,1.6-0.9,3.1-2.2,4.2c-1.2,1.1-2.9,1.6-4.5,1.5c-0.2,0-0.4,0-0.6-0.1l-0.5-0.1
				c-0.2,0-0.3,0-0.5,0.1c-0.1,0.1-0.2,0.1-0.3,0.2l-0.2,0.2c-0.1,0.1,0,0,0,0c0,0,0,0,0,0c-0.1,0.1-0.1,0.3-0.1,0.5
				c0,0.1,0,0.2,0.1,0.3c0,0.1,0,0.1,0.1,0.1l0.1,0.2c0.2,0.4,0.3,0.7,0.5,1.1c0.2,0.8,0.3,1.6,0.2,2.4c0,0.4-0.1,0.8-0.2,1.2
				c-0.1,0.4-0.3,0.8-0.5,1.1c-0.4,0.7-0.9,1.3-1.5,1.9c-0.3,0.3-0.6,0.5-1,0.7c-0.2,0.1-0.4,0.2-0.5,0.3c-0.2,0.1-0.2,0.1-0.3,0.2
				c-0.4,0.2-0.6,0.8-0.5,1.2c0,0.2,0.1,0.5,0.3,0.6c0.1,0.2,0.3,0.3,0.7,0.5c0.7,0.4,1.3,0.9,1.8,1.5c0.5,0.6,0.9,1.3,1.1,2.1
				c0.2,0.7,0.3,1.5,0.3,2.3c-0.1,0.8-0.3,1.5-0.6,2.2c-0.2,0.4-0.4,0.6-0.4,0.9c-0.1,0.3-0.1,0.6,0,0.9c0.2,0.6,0.7,1,1.3,1.1
				c0.1,0,0.3,0,0.4,0c0.2,0,0.4-0.1,0.6-0.1c0.4,0,0.7,0,1.1,0c1.5,0.1,2.9,0.8,3.9,2c0.5,0.6,0.8,1.2,1.1,1.9
				c0.1,0.3,0.2,0.7,0.3,1.1c0,0.4,0.1,0.7,0.2,1c0.3,0.6,1,1,1.7,0.9c0.3,0,0.7-0.2,0.9-0.4c0.3-0.2,0.5-0.5,0.7-0.8
				c1.1-1,2.6-1.4,4-1.3c1.4,0.1,2.8,0.8,3.7,1.9l0,0c0.6,0.7,1.7,0.9,2.5,0.3c0.4-0.3,0.6-0.6,0.8-1.1c0.1-0.4,0.1-0.9,0.3-1.3
				c0.5-1.7,1.9-3.2,3.7-3.7c0.9-0.3,1.8-0.3,2.7-0.1c0.4,0.1,0.9,0.1,1.3-0.1c0.4-0.2,0.7-0.5,0.9-0.9c0.2-0.4,0.2-0.9,0-1.3
				c-0.2-0.4-0.4-0.8-0.6-1.2c-0.3-0.8-0.4-1.8-0.3-2.7c0.2-1.8,1.4-3.5,3.1-4.3c0.4-0.2,0.8-0.4,1-0.8c0.2-0.4,0.4-0.8,0.3-1.2
				c-0.1-0.4-0.2-0.8-0.6-1.1c-0.3-0.3-0.8-0.4-1.2-0.6c-0.8-0.5-1.5-1.1-2-1.9c-0.5-0.8-0.7-1.7-0.8-2.6c-0.1-0.9,0.1-1.9,0.5-2.7
				c0.2-0.4,0.4-0.8,0.4-1.2C46,16.7,45.9,16.3,45.7,16z"/>
		</g>
		<g>
			<circle class="st6" cx="30" cy="27.4" r="10"/>
			<g>
				<path class="st3" d="M39.1,22.2c1.4,2.4,1.7,5.3,1,7.9c-0.7,2.6-2.5,4.9-4.8,6.3c-2.3,1.4-5.2,1.8-7.9,1.1
					c-2.7-0.7-5.1-2.4-6.5-4.8c-1.4-2.4-1.9-5.4-1.2-8.1c0.7-2.7,2.5-5.2,5-6.6c2.5-1.4,5.5-1.7,8.1-0.9
					C35.4,18,37.7,19.8,39.1,22.2z M38.7,22.4c-1.4-2.3-3.6-3.9-6.2-4.5c-2.5-0.6-5.2-0.2-7.4,1.1c-2.2,1.3-3.9,3.4-4.6,5.9
					c-0.7,2.5-0.4,5.2,0.9,7.5c1.2,2.3,3.4,4,6,4.8c2.5,0.7,5.4,0.4,7.7-0.9c2.3-1.3,4.1-3.6,4.7-6.2C40.5,27.5,40.1,24.7,38.7,22.4
					z"/>
			</g>
		</g>
	</g>
</g>
</svg>
